<svg width="50" height="68" viewBox="0 0 50 54" fill="none" xmlns="http://www.w3.org/2000/svg">
<path d="M19.2308 52.0716V38.5531C19.2308 37.6082 20.1923 36.644 21.1538 36.644H28.8462C29.8077 36.644 30.7692 37.6082 30.7692 38.5724V52.0716C30.7692 52.583 30.9718 53.0735 31.3325 53.4352C31.6931 53.7968 32.1823 54 32.6923 54H48.0769C48.587 54 49.0761 53.7968 49.4367 53.4352C49.7974 53.0735 50 52.583 50 52.0716V25.0733C50.0005 24.8199 49.9511 24.5688 49.8547 24.3346C49.7584 24.1003 49.6169 23.8874 49.4385 23.7079L44.2308 18.4896V5.78879C44.2308 5.27734 44.0282 4.78683 43.6675 4.42517C43.3069 4.06352 42.8177 3.86034 42.3077 3.86034H38.4615C37.9515 3.86034 37.4624 4.06352 37.1017 4.42517C36.7411 4.78683 36.5385 5.27734 36.5385 5.78879V10.7758L26.3615 0.566554C26.1829 0.386965 25.9707 0.24448 25.7371 0.147261C25.5034 0.0500424 25.253 0 25 0C24.747 0 24.4966 0.0500424 24.2629 0.147261C24.0293 0.24448 23.8171 0.386965 23.6385 0.566554L0.561542 23.7079C0.383073 23.8874 0.241619 24.1003 0.145266 24.3346C0.0489133 24.5688 -0.000448268 24.8199 3.06729e-06 25.0733V52.0716C3.06729e-06 52.583 0.202612 53.0735 0.563259 53.4352C0.923906 53.7968 1.41305 54 1.92308 54H17.3077C17.8177 54 18.3069 53.7968 18.6675 53.4352C19.0282 53.0735 19.2308 52.583 19.2308 52.0716Z" fill="#2E2C3A"/>
</svg>
