<svg width="130" height="32" viewBox="0 0 179 64" fill="none" xmlns="http://www.w3.org/2000/svg">
<rect width="179" height="64" rx="8" fill="#2E2C3A"/>
<path d="M36.4139 19.5635C36.0389 19.2027 35.5303 19 35 19C34.4697 19 33.9611 19.2027 33.5861 19.5635L20.2932 32.3551C20.2003 32.4446 20.1265 32.5508 20.0762 32.6677C20.0259 32.7846 20 32.9099 20 33.0364C20 33.163 20.0259 33.2883 20.0762 33.4052C20.1265 33.5221 20.2003 33.6283 20.2932 33.7178C20.481 33.8985 20.7356 34 21.0012 34C21.1327 34 21.2628 33.9751 21.3843 33.9267C21.5058 33.8782 21.6162 33.8073 21.7091 33.7178L35 20.9243L48.2909 33.7178C48.4786 33.8985 48.7333 34 48.9988 34C49.2644 34 49.519 33.8985 49.7068 33.7178C49.8945 33.5371 50 33.292 50 33.0364C50 32.7809 49.8945 32.5358 49.7068 32.3551L44.9992 27.8263V21.4882C44.9992 21.233 44.8938 20.9882 44.7063 20.8077C44.5188 20.6273 44.2644 20.5259 43.9992 20.5259H41.9994C41.7342 20.5259 41.4799 20.6273 41.2924 20.8077C41.1048 20.9882 40.9995 21.233 40.9995 21.4882V23.9769L36.4139 19.5635Z" fill="white"/>
<path d="M35 23L47.1875 34.2753V42.1812C47.1875 42.9288 46.8665 43.6458 46.2951 44.1744C45.7237 44.703 44.9487 45 44.1406 45H25.8594C25.0513 45 24.2763 44.703 23.7049 44.1744C23.1335 43.6458 22.8125 42.9288 22.8125 42.1812V34.2753L35 23Z" fill="white"/>
<path d="M65.592 23.152V40H61.488V23.152H65.592ZM85.6541 26.464C87.3181 26.464 88.6381 26.968 89.6141 27.976C90.6061 28.984 91.1021 30.384 91.1021 32.176V40H87.0221V32.728C87.0221 31.864 86.7901 31.2 86.3261 30.736C85.8781 30.256 85.2541 30.016 84.4541 30.016C83.6541 30.016 83.0221 30.256 82.5581 30.736C82.1101 31.2 81.8861 31.864 81.8861 32.728V40H77.8061V32.728C77.8061 31.864 77.5741 31.2 77.1101 30.736C76.6621 30.256 76.0381 30.016 75.2381 30.016C74.4381 30.016 73.8061 30.256 73.3421 30.736C72.8941 31.2 72.6701 31.864 72.6701 32.728V40H68.5661V26.608H72.6701V28.288C73.0861 27.728 73.6301 27.288 74.3021 26.968C74.9741 26.632 75.7341 26.464 76.5821 26.464C77.5901 26.464 78.4861 26.68 79.2701 27.112C80.0701 27.544 80.6941 28.16 81.1421 28.96C81.6061 28.224 82.2381 27.624 83.0381 27.16C83.8381 26.696 84.7101 26.464 85.6541 26.464ZM100.068 40.192C98.7564 40.192 97.5724 39.912 96.5164 39.352C95.4764 38.792 94.6524 37.992 94.0444 36.952C93.4524 35.912 93.1564 34.696 93.1564 33.304C93.1564 31.928 93.4604 30.72 94.0684 29.68C94.6764 28.624 95.5084 27.816 96.5644 27.256C97.6204 26.696 98.8044 26.416 100.116 26.416C101.428 26.416 102.612 26.696 103.668 27.256C104.724 27.816 105.556 28.624 106.164 29.68C106.772 30.72 107.076 31.928 107.076 33.304C107.076 34.68 106.764 35.896 106.14 36.952C105.532 37.992 104.692 38.792 103.62 39.352C102.564 39.912 101.38 40.192 100.068 40.192ZM100.068 36.64C100.852 36.64 101.516 36.352 102.06 35.776C102.62 35.2 102.9 34.376 102.9 33.304C102.9 32.232 102.628 31.408 102.084 30.832C101.556 30.256 100.9 29.968 100.116 29.968C99.3164 29.968 98.6524 30.256 98.1244 30.832C97.5964 31.392 97.3324 32.216 97.3324 33.304C97.3324 34.376 97.5884 35.2 98.1004 35.776C98.6284 36.352 99.2844 36.64 100.068 36.64ZM103.236 23.176L97.4524 25.6V22.768L103.236 19.984V23.176ZM115.278 36.16L118.182 26.608H122.55L117.798 40H112.734L107.982 26.608H112.374L115.278 36.16ZM136.901 33.088C136.901 33.472 136.877 33.872 136.829 34.288H127.541C127.605 35.12 127.869 35.76 128.333 36.208C128.813 36.64 129.397 36.856 130.085 36.856C131.109 36.856 131.821 36.424 132.221 35.56H136.589C136.365 36.44 135.957 37.232 135.365 37.936C134.789 38.64 134.061 39.192 133.181 39.592C132.301 39.992 131.317 40.192 130.229 40.192C128.917 40.192 127.749 39.912 126.725 39.352C125.701 38.792 124.901 37.992 124.325 36.952C123.749 35.912 123.461 34.696 123.461 33.304C123.461 31.912 123.741 30.696 124.301 29.656C124.877 28.616 125.677 27.816 126.701 27.256C127.725 26.696 128.901 26.416 130.229 26.416C131.525 26.416 132.677 26.688 133.685 27.232C134.693 27.776 135.477 28.552 136.037 29.56C136.613 30.568 136.901 31.744 136.901 33.088ZM132.701 32.008C132.701 31.304 132.461 30.744 131.981 30.328C131.501 29.912 130.901 29.704 130.181 29.704C129.493 29.704 128.909 29.904 128.429 30.304C127.965 30.704 127.677 31.272 127.565 32.008H132.701ZM141.13 25.216C140.41 25.216 139.818 25.008 139.354 24.592C138.906 24.16 138.682 23.632 138.682 23.008C138.682 22.368 138.906 21.84 139.354 21.424C139.818 20.992 140.41 20.776 141.13 20.776C141.834 20.776 142.41 20.992 142.858 21.424C143.322 21.84 143.554 22.368 143.554 23.008C143.554 23.632 143.322 24.16 142.858 24.592C142.41 25.008 141.834 25.216 141.13 25.216ZM143.17 26.608V40H139.066V26.608H143.17ZM151.592 40.192C150.424 40.192 149.384 39.992 148.472 39.592C147.56 39.192 146.84 38.648 146.312 37.96C145.784 37.256 145.488 36.472 145.424 35.608H149.48C149.528 36.072 149.744 36.448 150.128 36.736C150.512 37.024 150.984 37.168 151.544 37.168C152.056 37.168 152.448 37.072 152.72 36.88C153.008 36.672 153.152 36.408 153.152 36.088C153.152 35.704 152.952 35.424 152.552 35.248C152.152 35.056 151.504 34.848 150.608 34.624C149.648 34.4 148.848 34.168 148.208 33.928C147.568 33.672 147.016 33.28 146.552 32.752C146.088 32.208 145.856 31.48 145.856 30.568C145.856 29.8 146.064 29.104 146.48 28.48C146.912 27.84 147.536 27.336 148.352 26.968C149.184 26.6 150.168 26.416 151.304 26.416C152.984 26.416 154.304 26.832 155.264 27.664C156.24 28.496 156.8 29.6 156.944 30.976H153.152C153.088 30.512 152.88 30.144 152.528 29.872C152.192 29.6 151.744 29.464 151.184 29.464C150.704 29.464 150.336 29.56 150.08 29.752C149.824 29.928 149.696 30.176 149.696 30.496C149.696 30.88 149.896 31.168 150.296 31.36C150.712 31.552 151.352 31.744 152.216 31.936C153.208 32.192 154.016 32.448 154.64 32.704C155.264 32.944 155.808 33.344 156.272 33.904C156.752 34.448 157 35.184 157.016 36.112C157.016 36.896 156.792 37.6 156.344 38.224C155.912 38.832 155.28 39.312 154.448 39.664C153.632 40.016 152.68 40.192 151.592 40.192Z" fill="#F2F2F2"/>
</svg>
