<svg width="24" height="16" viewBox="0 0 30 26" fill="none" xmlns="http://www.w3.org/2000/svg">
<path d="M16.4139 0.563527C16.0389 0.202701 15.5303 0 15 0C14.4697 0 13.9611 0.202701 13.5861 0.563527L0.293239 13.3551C0.200271 13.4446 0.126524 13.5508 0.0762102 13.6677C0.0258963 13.7846 0 13.9099 0 14.0364C0 14.163 0.0258963 14.2883 0.0762102 14.4052C0.126524 14.5221 0.200271 14.6283 0.293239 14.7178C0.480996 14.8985 0.73565 15 1.00118 15C1.13266 15 1.26284 14.9751 1.38431 14.9267C1.50578 14.8782 1.61615 14.8073 1.70912 14.7178L15 1.92429L28.2909 14.7178C28.4786 14.8985 28.7333 15 28.9988 15C29.2644 15 29.519 14.8985 29.7068 14.7178C29.8945 14.5371 30 14.292 30 14.0364C30 13.7809 29.8945 13.5358 29.7068 13.3551L24.9992 8.82627V2.48823C24.9992 2.233 24.8938 1.98822 24.7063 1.80774C24.5188 1.62727 24.2644 1.52588 23.9992 1.52588H21.9994C21.7342 1.52588 21.4799 1.62727 21.2924 1.80774C21.1048 1.98822 20.9995 2.233 20.9995 2.48823V4.97687L16.4139 0.563527Z" fill="white"/>
<path d="M15 4.00003L27.1875 15.2753V23.1812C27.1875 23.9288 26.8665 24.6458 26.2951 25.1744C25.7237 25.703 24.9487 26 24.1406 26H5.85938C5.05129 26 4.27631 25.703 3.70491 25.1744C3.13351 24.6458 2.8125 23.9288 2.8125 23.1812V15.2753L15 4.00003Z" fill="white"/>
</svg>
