<svg width="16" height="14" viewBox="0 0 16 14" fill="none" xmlns="http://www.w3.org/2000/svg">
<path d="M11.3598 5.8075C11.0673 6.1 10.5798 6.1 10.2873 5.8075L6.93477 2.4625L1.64727 7.7425L1.15227 7.27C0.274766 6.3925 0.274766 4.9675 1.15227 4.09L4.33227 0.910003C5.20977 0.0325027 6.63477 0.0325027 7.51227 0.910003L11.3598 4.75C11.6523 5.0425 11.6523 5.515 11.3598 5.8075ZM11.8848 4.2175C12.4698 4.8025 12.4698 5.755 11.8848 6.34C10.9323 7.2925 9.92727 6.505 9.76227 6.34L6.94227 3.52L2.76477 7.6975C2.47227 7.99 2.47227 8.4625 2.76477 8.755C3.05727 9.0475 3.52977 9.0475 3.82977 8.755L7.29477 5.29L7.82727 5.8225L4.36227 9.2875C4.06977 9.58 4.06977 10.0525 4.36227 10.345C4.65477 10.6375 5.12727 10.6375 5.42727 10.345L8.89227 6.88L9.42476 7.4125L5.95977 10.8775C5.66727 11.17 5.66727 11.6425 5.95977 11.935C6.25227 12.2275 6.72477 12.2275 7.01727 11.935L10.4823 8.47L11.0148 9.0025L7.54977 12.4675C7.25727 12.76 7.25727 13.2325 7.54977 13.525C7.84227 13.8175 8.31477 13.8175 8.60727 13.525L14.8473 7.27C15.7248 6.3925 15.7248 4.9675 14.8473 4.09L11.6673 0.910003C10.8048 0.0475027 9.40977 0.0325025 8.53227 0.865003L11.8848 4.2175Z" fill="#2E2C3A"/>
</svg>
