<svg width="50" height="59" viewBox="0 0 50 59" fill="none" xmlns="http://www.w3.org/2000/svg">
<path d="M39.2857 0.525269C40.2329 0.525269 41.1413 0.936036 41.8111 1.66721C42.4809 2.39838 42.8571 3.39006 42.8571 4.42409V55.1088H48.2143C48.6879 55.1088 49.1421 55.3142 49.477 55.6798C49.8119 56.0454 50 56.5412 50 57.0582C50 57.5753 49.8119 58.0711 49.477 58.4367C49.1421 58.8023 48.6879 59.0077 48.2143 59.0077H1.78571C1.31211 59.0077 0.85791 58.8023 0.523023 58.4367C0.188137 58.0711 0 57.5753 0 57.0582C0 56.5412 0.188137 56.0454 0.523023 55.6798C0.85791 55.3142 1.31211 55.1088 1.78571 55.1088H7.14286V4.42409C7.14286 3.39006 7.51913 2.39838 8.1889 1.66721C8.85868 0.936036 9.76708 0.525269 10.7143 0.525269H39.2857ZM32.1429 35.6147C33.0901 35.6147 33.9985 35.2039 34.6682 34.4728C35.338 33.7416 35.7143 32.7499 35.7143 31.7159C35.7143 30.6818 35.338 29.6902 34.6682 28.959C33.9985 28.2278 33.0901 27.817 32.1429 27.817C31.1957 27.817 30.2872 28.2278 29.6175 28.959C28.9477 29.6902 28.5714 30.6818 28.5714 31.7159C28.5714 32.7499 28.9477 33.7416 29.6175 34.4728C30.2872 35.2039 31.1957 35.6147 32.1429 35.6147Z" fill="#2E2C3A"/>
</svg>
